HIERARCHY
ROOT Hip
{
  OFFSET 0.0 0.0 0.0
  CHANNELS 6 Xposition Yposition Zposition Xrotation Yrotation Zrotation
  JOINT LowerSpine
  {
    OFFSET 0.0 0.061367 -0.03653
    CHANNELS 3 Xrotation Yrotation Zrotation
    JOINT MiddleSpine
    {
      OFFSET 0.0 0.056002 0.002633
      CHANNELS 3 Xrotation Yrotation Zrotation
      JOINT Chest
      {
        OFFSET 0.0 0.069296 -0.013882
        CHANNELS 3 Xrotation Yrotation Zrotation
        JOINT Neck
        {
          OFFSET 0.0 0.156156 -0.002923
          CHANNELS 3 Xrotation Yrotation Zrotation
          JOINT Head
          {
            OFFSET 0.0 0.088183 0.023986
            CHANNELS 3 Xrotation Yrotation Zrotation
            End Site
            {
              OFFSET 1e-06 0.123215 0.003678
            }
          }
        }
        JOINT LClavicle
        {
          OFFSET 0.014189 0.150698 0.046467
          CHANNELS 3 Xrotation Yrotation Zrotation
          JOINT LShoulder
          {
            OFFSET 0.082893 0.021616 -0.034976
            CHANNELS 3 Xrotation Yrotation Zrotation
            JOINT LForearm
            {
              OFFSET 0.195645 -0.000695 -0.001695
              CHANNELS 3 Xrotation Yrotation Zrotation
              JOINT LHand
              {
                OFFSET 0.163209 0.000474 -0.000977
                CHANNELS 3 Xrotation Yrotation Zrotation
                End Site
                {
                  OFFSET 0.0 0.006864 0.0
                }
              }
            }
          }
        }
        JOINT RClavicle
        {
          OFFSET -0.014189 0.150698 0.046467
          CHANNELS 3 Xrotation Yrotation Zrotation
          JOINT RShoulder
          {
            OFFSET -0.082908 0.021619 -0.034982
            CHANNELS 3 Xrotation Yrotation Zrotation
            JOINT RForearm
            {
              OFFSET -0.195645 -0.000695 -0.001695
              CHANNELS 3 Xrotation Yrotation Zrotation
              JOINT RHand
              {
                OFFSET -0.163209 0.000474 -0.000977
                CHANNELS 3 Xrotation Yrotation Zrotation
                End Site
                {
                  OFFSET 0.0 0.006864 0.0
                }
              }
            }
          }
        }
      }
    }
  }
  JOINT RThigh
  {
    OFFSET -0.072558 0.02774 -0.005953
    CHANNELS 3 Xrotation Yrotation Zrotation
    JOINT RShin
    {
      OFFSET -0.005253 -0.285537 0.0
      CHANNELS 3 Xrotation Yrotation Zrotation
      JOINT RFoot
      {
        OFFSET 0.0 -0.28038 0.0
        CHANNELS 3 Xrotation Yrotation Zrotation
        JOINT RToe
        {
          OFFSET 0.0 -0.030816 0.064441
          CHANNELS 3 Xrotation Yrotation Zrotation
          End Site
          {
            OFFSET 0.0 0.0 0.043231
          }
        }
      }
    }
  }
  JOINT LThigh
  {
    OFFSET 0.072557 0.027741 -0.005953
    CHANNELS 3 Xrotation Yrotation Zrotation
    JOINT LShin
    {
      OFFSET 0.005253 -0.285539 0.0
      CHANNELS 3 Xrotation Yrotation Zrotation
      JOINT LFoot
      {
        OFFSET 0.0 -0.28038 0.0
        CHANNELS 3 Xrotation Yrotation Zrotation
        JOINT LToe
        {
          OFFSET 0.0 -0.030816 0.064441
          CHANNELS 3 Xrotation Yrotation Zrotation
          End Site
          {
            OFFSET 0.0 0.0 0.043231
          }
        }
      }
    }
  }
}
MOTION
Frames: 7
Frame Time: 0.03333333333333333
0.031601 0.495068 -0.045867 -9.738985 2.763289 1.523761 5.584383 -0.166648 -0.418351 2.201347 4.358635 0.104305 5.574581 11.03528 1.534214 4.310061 0.892293 0.599773 0.060738 0.084635 -0.002308 -1.481433 0.233392 -2.483187 4.291922 -20.444193 -56.088612 162.112335 -76.463531 164.969086 -0.010895 0.014853 0.034338 -2.196079 -0.529379 2.091476 -22.744661 32.172523 67.668907 171.888916 49.97213 177.472214 0.076737 0.009851 -0.014656 -13.745578 -3.686563 -3.002749 43.958858 -0.319762 4.965048 -7.265921 0.191999 -0.070331 0.005862 0.19592 0.031996 -0.537652 7.785172 8.003381 19.045076 2.320725 -6.751956 -3.43619 0.445204 0.508154 0.014274 -0.017817 0.012335 
0.031355 0.494691 -0.046677 -9.876903 2.924818 1.56846 5.584131 -0.157686 -0.415074 2.210868 4.358401 0.089328 5.528868 11.075232 1.459868 4.310832 0.88932 0.615932 0.061661 0.084239 -0.001825 -1.50343 0.24108 -2.46595 4.407225 -20.593369 -55.944832 161.451904 -77.034569 164.074875 -0.010659 0.015586 0.035209 -2.192997 -0.49291 1.978788 -23.255024 32.752899 67.836571 172.086243 50.134808 177.397903 0.075985 0.013794 -0.014797 -13.736045 -3.541673 -3.033201 44.160221 -0.181104 4.926791 -7.255517 0.183825 -0.069946 0.004442 0.188574 0.030625 -0.339008 7.80388 7.916811 18.916431 2.293199 -6.681612 -3.424949 0.424626 0.490901 0.013585 -0.016391 0.012066 
0.030876 0.494298 -0.047393 -9.987083 3.113023 1.62262 5.579597 -0.150397 -0.410489 2.219244 4.356411 0.073194 5.478963 11.114728 1.37791 4.304592 0.885929 0.627906 0.062392 0.083936 -0.001615 -1.522368 0.249357 -2.449536 4.524699 -20.749041 -55.800735 160.736099 -77.625778 163.129944 -0.010651 0.016021 0.036078 -2.188042 -0.462956 1.882403 -23.721556 33.347546 67.973488 172.266327 50.307926 177.325745 0.075424 0.017175 -0.014919 -13.740206 -3.403295 -3.067455 44.338455 -0.049232 4.889684 -7.257458 0.176694 -0.069133 0.003289 0.181551 0.029013 -0.208531 7.830081 7.864678 18.864557 2.291597 -6.630692 -3.41785 0.407943 0.473768 0.013 -0.015014 0.01196 
0.030269 0.4939 -0.048016 -10.093204 3.301044 1.683185 5.575321 -0.143119 -0.403789 2.228429 4.352974 0.055586 5.44557 11.156351 1.300438 4.295908 0.882312 0.636533 0.062871 0.083461 -0.001562 -1.54226 0.253546 -2.435621 4.63094 -20.902971 -55.675735 159.95723 -78.230209 162.10791 -0.010964 0.016046 0.036932 -2.184942 -0.434884 1.798239 -24.148754 33.941113 68.061752 172.421402 50.484356 177.259079 0.074636 0.020498 -0.015055 -13.728145 -3.265841 -3.096184 44.466084 0.080071 4.852784 -7.261213 0.170542 -0.067871 0.002322 0.174548 0.027355 -0.084575 7.867036 7.831212 18.828903 2.305024 -6.595859 -3.41835 0.396933 0.459393 0.012128 -0.013549 0.011832 
0.029566 0.493487 -0.048587 -10.19288 3.476138 1.746802 5.572919 -0.136842 -0.396639 2.239729 4.34943 0.036429 5.424863 11.194896 1.225522 4.286437 0.878457 0.6426 0.063127 0.083141 -0.001587 -1.562899 0.25536 -2.421722 4.723141 -21.057482 -55.564426 159.079819 -78.842674 160.986603 -0.011571 0.015731 0.037809 -2.182693 -0.411519 1.725522 -24.519735 34.496288 68.128258 172.543961 50.668495 177.204987 0.073927 0.023581 -0.015173 -13.732203 -3.130118 -3.115813 44.577408 0.205707 4.817093 -7.260434 0.166675 -0.065071 0.001741 0.167975 0.025771 0.030247 7.916388 7.813566 18.817486 2.332901 -6.578322 -3.427385 0.391902 0.447553 0.011014 -0.011977 0.01171 
0.028746 0.493035 -0.049129 -10.291874 3.630836 1.813828 5.573396 -0.13275 -0.390164 2.253774 4.347224 0.01657 5.402945 11.225049 1.148766 4.279706 0.873716 0.646935 0.063254 0.083311 -0.001575 -1.585846 0.255905 -2.405796 4.795813 -21.206995 -55.465385 158.036926 -79.475029 159.724701 -0.012625 0.014777 0.039074 -2.180217 -0.390534 1.661609 -24.833929 35.008797 68.183693 172.645691 50.86813 177.161179 0.072839 0.026857 -0.015246 -13.75307 -3.003101 -3.125033 44.672562 0.325118 4.783508 -7.255884 0.165374 -0.059255 0.001654 0.161463 0.02417 0.140303 7.970646 7.805056 18.818254 2.363753 -6.570694 -3.440519 0.390395 0.436174 0.009724 -0.009788 0.011856 
0.027805 0.492529 -0.049628 -10.400366 3.759401 1.884007 5.579045 -0.130897 -0.384067 2.270093 4.346297 -0.003948 5.381681 11.253598 1.077665 4.27706 0.868712 0.649046 0.063237 0.083622 -0.001507 -1.610664 0.253347 -2.390646 4.837419 -21.340996 -55.392467 156.76918 -80.118134 158.277542 -0.013988 0.013391 0.040663 -2.179041 -0.372751 1.605919 -25.114019 35.472641 68.24987 172.722519 51.089546 177.128815 0.071494 0.030045 -0.015237 -13.769581 -2.879706 -3.116466 44.735294 0.442722 4.749545 -7.244268 0.167451 -0.051111 0.002103 0.155268 0.022712 0.260958 8.031754 7.803472 18.817425 2.393492 -6.574915 -3.458435 0.39312 0.426599 0.008223 -0.007144 0.012213 
